# This file uses meters as units for non-parametric coordinates.

mtllib Back_Building_middle_cement_face.mtl
v 3042.037238 1783.617516 2533.949809
v 3113.497220 1783.617516 2533.950335
v 3113.496659 2466.687096 2533.950335
v 3104.738843 2467.317955 2533.950335
v 3104.738843 2563.152550 2533.950335
v 3042.037238 2563.152550 2533.950335
v 3042.037238 1783.617516 1435.212728
v 3111.235715 1783.617516 1435.212728
v 3111.235528 2467.180016 1435.212728
v 3104.738843 2467.318321 1435.212728
v 3104.738843 2563.152550 1435.212728
v 3042.037238 2563.152550 1435.212728
v 3104.738843 2801.266197 1435.212728
v 3042.037238 2801.266197 1435.212728
v 3042.037238 2801.266197 2533.950335
v 3104.738843 2801.266197 2533.950335
v 2439.687532 2563.152550 1435.212728
v 2439.687532 1783.617516 1435.212728
v 2439.687532 1783.617516 2533.949809
v 2439.687532 2563.152550 2533.950335
v 2439.687532 2801.266197 1435.212728
v 2439.687532 2801.266197 2533.950335
v 3042.037238 2044.419548 1435.212728
v 2439.687532 2044.419548 1435.212728
v 2439.687532 2044.419548 2533.949809
v 3042.037238 2044.419548 2533.949809
v 3113.496659 2066.615318 2533.950335
v 3111.235528 2066.615318 1435.212728
v 3042.037238 2524.732201 2533.950335
v 2439.687532 2524.732201 2533.950335
v 2439.687532 2524.732201 1435.212728
v 3042.037238 2524.732201 1435.212728
v 3113.496659 2294.444664 2533.950335
v 3111.235528 2294.444664 1435.212728
v 3042.037238 2345.254723 2533.950335
v 2439.687532 2345.254723 2533.950335
v 2439.687532 2345.254723 1435.212466
v 3042.037238 2345.254723 1435.212466
vt 0.548345 0.702696
vt 0.548345 0.699237
vt 0.581936 0.699124
vt 0.581936 0.702696
vt 0.381367 0.271441
vt 0.479737 0.271441
vt 0.479737 0.480364
vt 0.381367 0.480364
vt 0.218800 0.804062
vt 0.218800 0.803624
vt 0.213912 0.803737
vt 0.213912 0.804062
vt 0.989018 0.465735
vt 0.496482 0.465735
vt 0.496482 0.355768
vt 0.989018 0.355768
vt 0.184654 0.495071
vt 0.197339 0.495071
vt 0.197339 0.640964
vt 0.184654 0.640964
vt 0.496482 0.489275
vt 0.989018 0.489275
vt 0.989018 0.635168
vt 0.496482 0.635168
vt 0.150585 0.495071
vt 0.164100 0.495071
vt 0.164100 0.640964
vt 0.150585 0.640964
vt 0.319208 0.471531
vt 0.197339 0.471531
vt 0.197339 0.361564
vt 0.319208 0.361564
vt 0.581936 0.732807
vt 0.548345 0.732807
vt 0.020752 0.177242
vt 0.150585 0.177242
vt 0.150585 0.361564
vt 0.020752 0.361564
vt 0.020752 0.640964
vt 0.020752 0.495071
vt 0.319208 0.495071
vt 0.319208 0.640964
vt 0.319208 0.177242
vt 0.197339 0.177242
vt 0.197339 0.017448
vt 0.319208 0.017448
vt 0.989018 0.171446
vt 0.496482 0.171446
vt 0.496482 0.011652
vt 0.989018 0.011652
vt 0.150585 0.017448
vt 0.020752 0.017448
vt 0.479737 0.011927
vt 0.381367 0.011927
vt 0.020752 0.471531
vt 0.150585 0.471531
vt 0.479737 0.638765
vt 0.381367 0.638313
vn 0.000000 -1.000000 0.000000
vn 0.000000 -1.000000 0.000000
vn 0.000000 -1.000000 0.000000
vn 0.000000 -1.000000 0.000000
vn 0.999998 0.000001 -0.002058
vn 0.999998 0.000001 -0.002058
vn 0.999998 0.000000 -0.002058
vn 0.999998 0.000000 -0.002058
vn 0.050358 0.998731 0.000172
vn 0.050358 0.998731 0.000172
vn 0.050358 0.998731 0.000172
vn 0.050358 0.998731 0.000172
vn -1.000000 0.000000 0.000000
vn -1.000000 0.000000 0.000000
vn -1.000000 -0.000000 0.000000
vn -1.000000 -0.000000 0.000000
vn 0.000000 0.000000 -1.000000
vn 0.000000 0.000000 -1.000000
vn 0.000000 0.000000 -1.000000
vn 0.000000 0.000000 -1.000000
vn -1.000000 0.000000 0.000000
vn -1.000000 0.000000 0.000000
vn -1.000000 0.000000 0.000000
vn -1.000000 0.000000 0.000000
vn 0.000000 0.000000 1.000000
vn 0.000000 0.000000 1.000000
vn 0.000000 0.000000 1.000000
vn 0.000000 0.000000 1.000000
vn 0.000000 0.000001 -1.000000
vn 0.000000 0.000001 -1.000000
vn 0.000000 -0.000000 -1.000000
vn 0.000000 -0.000000 -1.000000
vn 0.000000 -1.000000 0.000000
vn 0.000000 -1.000000 0.000000
vn 0.000000 -1.000000 0.000000
vn 0.000000 -1.000000 0.000000
vn 0.000000 -0.000001 1.000000
vn 0.000000 -0.000001 1.000000
vn 0.000000 -0.000001 1.000000
vn 0.000000 -0.000001 1.000000
vn 0.000000 0.000000 1.000000
vn 0.000000 0.000000 1.000000
vn 0.000000 0.000000 1.000000
vn 0.000000 0.000000 1.000000
vn 0.000000 0.000000 -1.000000
vn 0.000000 0.000000 -1.000000
vn 0.000000 0.000000 -1.000000
vn 0.000000 0.000000 -1.000000
vn 0.000000 -0.000000 -1.000000
vn 0.000000 -0.000000 -1.000000
vn 0.000000 0.000000 -1.000000
vn 0.000000 0.000000 -1.000000
vn -1.000000 -0.000000 0.000000
vn -1.000000 -0.000000 0.000000
vn -1.000000 0.000000 0.000000
vn -1.000000 0.000000 0.000000
vn 0.000000 0.000000 1.000000
vn 0.000000 0.000000 1.000000
vn 0.999998 0.000001 -0.002058
vn 0.999998 0.000001 -0.002058
vn 0.000000 0.000000 1.000000
vn 0.000000 0.000000 1.000000
vn 0.000000 0.000000 1.000000
vn 0.000000 0.000000 1.000000
vn -1.000000 0.000000 0.000000
vn -1.000000 0.000000 0.000000
vn 0.000000 0.000000 -1.000000
vn 0.000000 0.000000 -1.000000
vn 0.999998 0.000000 -0.002058
vn 0.999998 0.000000 -0.002058
usemtl aiStandardSurface32SG
f 7/1/1 8/2/2 2/3/3 1/4/4
f 27/5/5 28/6/6 34/7/7 33/8/8
f 4/9/9 3/10/10 9/11/11 10/12/12
f 30/13/13 31/14/14 37/15/15 36/16/16
f 11/17/17 12/18/18 14/19/19 13/20/20
f 17/21/21 20/22/22 22/23/23 21/24/24
f 6/25/25 5/26/26 16/27/27 15/28/28
f 31/29/29 32/30/30 38/31/31 37/32/32
f 7/1/33 1/4/34 19/33/35 18/34/36
f 25/35/37 26/36/38 35/37/39 36/38/40
f 6/25/41 15/28/42 22/39/43 20/40/44
f 14/19/45 12/18/46 17/41/47 21/42/48
f 24/43/49 23/44/50 7/45/51 18/46/52
f 25/47/53 24/48/54 18/49/55 19/50/56
f 1/51/57 26/36/38 25/35/37 19/52/58
f 8/53/59 28/6/6 27/5/5 2/54/60
f 30/55/61 29/56/62 6/25/63 20/40/64
f 17/21/65 31/14/14 30/13/13 20/22/66
f 12/18/67 32/30/30 31/29/29 17/41/68
f 33/8/8 34/7/7 9/57/69 3/58/70
f 36/16/16 37/15/15 24/48/54 25/47/53
f 37/32/32 38/31/31 23/44/50 24/43/49
f 36/38/40 35/37/39 29/56/62 30/55/61
