# This file uses meters as units for non-parametric coordinates.

mtllib Back_Building_middle_roof.mtl
v 4702.506836 2843.379363 1435.212524
v 4702.506836 2843.379363 2533.950195
v 4743.199707 2843.379363 2533.950195
v 4743.199707 2843.379363 1435.212524
v 4546.259766 2843.379363 1435.212524
v 4546.259766 2843.379363 2533.950195
v 4389.155762 2843.379363 1435.212524
v 4389.155762 2843.379363 2533.950195
v 4702.506836 2801.266203 1336.026733
v 4546.259766 2801.266203 1336.026733
v 4546.259766 2843.379363 1336.026733
v 4702.506836 2843.379363 1336.026733
v 4546.259766 2843.379363 2641.388672
v 4546.259766 2801.266203 2641.388672
v 4702.506836 2801.266203 2641.388672
v 4702.506836 2843.379363 2641.388672
v 4856.014648 2801.266203 2641.388184
v 4856.014648 2843.379363 2641.388184
v 4856.014648 2801.266203 1336.027588
v 4856.014648 2843.379363 1336.027588
v 4389.155762 2801.266203 1336.026733
v 4389.155762 2843.379363 1336.026733
v 4389.155762 2843.379363 2641.388672
v 4389.155762 2801.266203 2641.388672
v 4702.506836 2809.408293 1435.212524
v 4546.259766 2809.408293 1435.212524
v 4546.259766 2809.408293 2533.950195
v 4702.506836 2809.408293 2533.950195
v 4743.199707 2809.408293 2533.950195
v 4743.199707 2809.408293 1435.212524
v 4389.155762 2809.408293 1435.212524
v 4389.155762 2809.408293 2533.950195
v 4224.637695 2843.379363 1435.212402
v 4224.637207 2843.379485 2533.950195
v 4224.637695 2801.266203 1336.026733
v 4224.637695 2843.379363 1336.026733
v 4224.637207 2801.266203 2641.388672
v 4224.637207 2843.379363 2641.388672
v 4224.637695 2809.408293 1435.212402
v 4224.637207 2809.408293 2533.950195
v 3104.738770 2843.379363 2641.388672
v 3104.738770 2801.266203 2641.388672
v 3104.738770 2843.379363 1336.026733
v 3104.738770 2843.379363 1435.212524
v 3104.738770 2809.408293 2533.950195
v 3104.738770 2843.379363 2533.950195
v 3104.738770 2801.266203 1336.026733
v 3104.738770 2809.408293 1435.212524
v 4702.506836 2801.266203 1435.212524
v 4546.259766 2801.266203 1435.212524
v 4546.259766 2801.266203 2533.950195
v 4702.506836 2801.266203 2533.950195
v 4743.199707 2801.266203 2533.950195
v 4743.199707 2801.266203 1435.212524
v 4389.155762 2801.266203 1435.212524
v 4389.155762 2801.266203 2533.950195
v 4224.637695 2801.266203 1435.212524
v 3104.738770 2801.266203 2533.950195
v 4224.637207 2801.266203 2533.950195
v 3104.738770 2801.266203 1435.212524
v 3104.738770 2843.379363 1435.212524
v 3104.738770 2843.379363 2533.950195
v 3042.037109 2843.379363 2533.950195
v 3042.037109 2843.379363 1435.212524
v 2439.687500 2843.379363 2533.950195
v 2439.687500 2843.379363 1435.212524
v 3042.037109 2801.266203 2641.388672
v 3104.738770 2801.266203 2641.388672
v 3104.738770 2843.379363 2641.388672
v 3042.037109 2843.379363 2641.388672
v 3104.738770 2801.266203 1336.026733
v 3042.037109 2801.266203 1336.026733
v 3042.037109 2843.379363 1336.026733
v 3104.738770 2843.379363 1336.026733
v 2326.872559 2801.266203 1336.027588
v 2326.872559 2801.266203 2641.388184
v 2326.872559 2843.379363 2641.388184
v 2326.872559 2843.379363 1336.027588
v 3104.738770 2809.408293 2533.950195
v 3042.037109 2809.408293 2533.950195
v 3104.738770 2809.408293 1435.212524
v 3042.037109 2809.408293 1435.212524
v 2439.687500 2809.408293 1435.212524
v 2439.687500 2809.408293 2533.950195
v 3042.037109 2801.266203 2533.950195
v 3104.738770 2801.266203 2533.950195
v 3104.738770 2801.266203 1435.212524
v 3042.037109 2801.266203 1435.212524
v 2439.687500 2801.266203 1435.212524
v 2439.687500 2801.266203 2533.950195
vt 0.177598 0.770981
vt 0.177598 0.444139
vt 0.188143 0.444139
vt 0.188143 0.770981
vt 0.157854 0.444139
vt 0.157854 0.719246
vt 0.149348 0.719246
vt 0.149348 0.444139
vt 0.193762 0.770981
vt 0.193762 0.444139
vt 0.204306 0.444139
vt 0.204306 0.770981
vt 0.171979 0.444139
vt 0.171979 0.719246
vt 0.163473 0.719246
vt 0.163473 0.444139
vt 0.914051 0.454328
vt 0.914051 0.493450
vt 0.638944 0.493450
vt 0.638944 0.454328
vt 0.914051 0.532786
vt 0.638944 0.532786
vt 0.638944 0.444139
vt 0.914051 0.444139
vt 0.914051 0.573979
vt 0.638944 0.573979
vt 0.914051 0.854384
vt 0.638944 0.854384
vt 0.060752 0.040428
vt 0.060752 0.079550
vt 0.035918 0.079550
vt 0.035918 0.040428
vt 0.060752 0.118886
vt 0.035918 0.118886
vt 0.060752 0.030239
vt 0.035918 0.001992
vt 0.060752 0.160079
vt 0.035918 0.160079
vt 0.335859 0.030239
vt 0.362760 0.001992
vt 0.060752 0.440484
vt 0.035918 0.440484
vt 0.335859 0.040428
vt 0.362760 0.040428
vt 0.335859 0.079550
vt 0.362760 0.079550
vt 0.335859 0.118886
vt 0.362760 0.118886
vt 0.362760 0.160079
vt 0.335859 0.160079
vt 0.335859 0.440484
vt 0.362760 0.440484
vt 0.671720 0.079550
vt 0.671720 0.040428
vt 0.696554 0.040428
vt 0.696554 0.079550
vt 0.671720 0.030239
vt 0.696554 0.001992
vt 0.671720 0.118886
vt 0.696554 0.118886
vt 0.396613 0.030239
vt 0.369712 0.001992
vt 0.696554 0.160079
vt 0.671720 0.160079
vt 0.396613 0.040428
vt 0.369712 0.040428
vt 0.671720 0.440484
vt 0.696554 0.440484
vt 0.396613 0.079550
vt 0.369712 0.079550
vt 0.396613 0.118886
vt 0.369712 0.118886
vt 0.396613 0.160079
vt 0.369712 0.160079
vt 0.396613 0.440484
vt 0.369712 0.440484
vt 0.152643 0.722902
vt 0.168343 0.722902
vt 0.168343 0.998008
vt 0.152643 0.998008
vt 0.001825 0.998008
vt 0.001825 0.722902
vt 0.589376 0.744080
vt 0.605075 0.744080
vt 0.605075 0.770981
vt 0.589376 0.770981
vt 0.438557 0.744080
vt 0.410310 0.770981
vt 0.438557 0.468974
vt 0.410310 0.444140
vt 0.589376 0.468974
vt 0.589376 0.444139
vt 0.605075 0.468974
vt 0.605075 0.444139
vt 0.404691 0.471040
vt 0.388991 0.471040
vt 0.388991 0.444139
vt 0.404691 0.444139
vt 0.238172 0.471040
vt 0.209925 0.444139
vt 0.238172 0.746147
vt 0.209925 0.770981
vt 0.388991 0.746147
vt 0.388991 0.770981
vt 0.404691 0.746147
vt 0.404691 0.770981
vt 0.012369 0.040428
vt 0.012369 0.079550
vt 0.001824 0.079550
vt 0.001824 0.040428
vt 0.012369 0.118886
vt 0.001824 0.118886
vt 0.012369 0.001992
vt 0.001824 0.001992
vt 0.012369 0.160079
vt 0.001824 0.160079
vt 0.012369 0.440484
vt 0.001824 0.440484
vt 0.028612 0.079550
vt 0.018068 0.079550
vt 0.018068 0.040428
vt 0.028612 0.040428
vt 0.028612 0.118886
vt 0.018068 0.118886
vt 0.018068 0.001992
vt 0.028612 0.001992
vt 0.028612 0.160079
vt 0.018068 0.160079
vt 0.018068 0.440484
vt 0.028612 0.440484
vt 0.633325 0.454328
vt 0.633325 0.493450
vt 0.624819 0.493450
vt 0.624819 0.454328
vt 0.633325 0.532786
vt 0.624819 0.532786
vt 0.633325 0.444139
vt 0.624819 0.444139
vt 0.633325 0.573979
vt 0.624819 0.573979
vt 0.633325 0.854384
vt 0.624819 0.854384
vt 0.610694 0.493450
vt 0.610694 0.454328
vt 0.619200 0.454328
vt 0.619200 0.493450
vt 0.610694 0.444139
vt 0.619200 0.444139
vt 0.610694 0.532786
vt 0.619200 0.532786
vt 0.619200 0.573979
vt 0.610694 0.573979
vt 0.610694 0.854384
vt 0.619200 0.854384
vt 0.175148 0.790336
vt 0.175148 0.774637
vt 0.185692 0.774637
vt 0.185692 0.790336
vt 0.185692 0.969402
vt 0.175148 0.969402
vt 0.203542 0.774637
vt 0.203542 0.790336
vt 0.192998 0.790336
vt 0.192998 0.774637
vt 0.203542 0.969402
vt 0.192998 0.969402
vt 0.210848 0.790336
vt 0.210848 0.774637
vt 0.219353 0.774637
vt 0.219353 0.790336
vt 0.210848 0.941155
vt 0.219353 0.941155
vt 0.233633 0.774637
vt 0.233633 0.790336
vt 0.225128 0.790336
vt 0.225128 0.774637
vt 0.233633 0.941155
vt 0.225128 0.941155
vn 0.000000 1.000000 0.000000
vn 0.000000 1.000000 0.000000
vn 0.000000 1.000000 0.000000
vn 0.000000 1.000000 0.000000
vn 0.000000 1.000000 0.000000
vn 0.000000 1.000000 0.000000
vn 0.000000 1.000000 0.000000
vn 0.000000 1.000000 0.000000
vn 0.000000 0.000000 -1.000000
vn 0.000000 0.000000 -1.000000
vn 0.000000 0.000000 -1.000000
vn 0.000000 0.000000 -1.000000
vn 0.000000 0.000000 1.000000
vn 0.000000 0.000000 1.000000
vn 0.000000 0.000000 1.000000
vn 0.000000 0.000000 1.000000
vn 0.000002 0.000000 1.000000
vn 0.000002 0.000000 1.000000
vn 0.000002 0.000000 1.000000
vn 0.000002 0.000000 1.000000
vn 1.000000 0.000000 0.000000
vn 1.000000 0.000000 0.000000
vn 1.000000 0.000000 0.000000
vn 1.000000 0.000000 0.000000
vn 0.000006 0.000000 -1.000000
vn 0.000006 0.000000 -1.000000
vn 0.000006 0.000000 -1.000000
vn 0.000006 0.000000 -1.000000
vn 0.000000 0.000000 -1.000000
vn 0.000000 0.000000 -1.000000
vn 0.000000 1.000000 -0.000000
vn 0.000000 1.000000 -0.000000
vn 0.000000 0.000000 1.000000
vn 0.000000 0.000000 1.000000
vn 0.000000 0.000000 -1.000000
vn 0.000000 0.000000 -1.000000
vn 0.000000 1.000000 -0.000000
vn 0.000000 1.000000 -0.000000
vn 0.000000 0.000000 1.000000
vn 0.000000 0.000000 1.000000
vn 0.000000 0.000000 1.000000
vn 0.000000 0.000000 1.000000
vn 0.000000 -1.000000 0.000000
vn 0.000000 -1.000000 0.000000
vn 0.000000 -1.000000 0.000000
vn 0.000000 -1.000000 0.000000
vn 0.000000 1.000000 0.000000
vn 0.000000 1.000000 0.000000
vn 0.000000 1.000000 0.000000
vn 0.000000 1.000000 0.000000
vn 0.000000 -1.000000 0.000000
vn 0.000000 -1.000000 0.000000
vn 0.000000 -1.000000 0.000000
vn 0.000000 -1.000000 0.000000
vn 0.000000 1.000000 -0.000001
vn 0.000000 1.000000 0.000000
vn 0.000000 1.000000 0.000000
vn 0.000000 1.000000 -0.000001
vn 0.000000 -1.000000 0.000000
vn 0.000000 -1.000000 0.000000
vn 0.000000 1.000000 -0.000000
vn 0.000000 1.000000 -0.000000
vn 0.000000 -1.000000 0.000000
vn 0.000000 -1.000000 0.000000
vn 0.000000 1.000000 0.000000
vn 0.000000 1.000000 0.000000
vn 0.000000 -1.000000 0.000000
vn 0.000000 -1.000000 0.000000
vn 0.000000 1.000000 0.000000
vn 0.000000 1.000000 0.000000
vn 0.000000 -1.000000 0.000000
vn 0.000000 -1.000000 0.000000
vn 0.000000 1.000000 0.000001
vn 0.000000 1.000000 0.000001
vn 0.000000 -1.000000 0.000000
vn 0.000000 -1.000000 0.000000
vn 0.000000 1.000000 0.000000
vn 0.000000 1.000000 0.000000
vn 0.000000 1.000000 0.000000
vn 0.000000 1.000000 0.000000
vn 0.000000 -1.000000 0.000000
vn 0.000000 -1.000000 0.000000
vn 0.000000 -1.000000 0.000000
vn 0.000000 -1.000000 0.000000
vn 0.000000 1.000000 0.000001
vn 0.000000 1.000000 0.000001
vn 0.000000 0.000000 1.000000
vn 0.000000 0.000000 1.000000
vn 0.000000 0.000000 1.000000
vn 0.000000 0.000000 1.000000
vn 0.000000 0.000000 -1.000000
vn 0.000000 0.000000 -1.000000
vn 0.000000 0.000000 -1.000000
vn 0.000000 0.000000 -1.000000
vn 0.000000 0.000000 -1.000000
vn 0.000000 0.000000 -1.000000
vn 0.000000 0.000000 -1.000000
vn 0.000000 0.000000 -1.000000
vn -1.000000 0.000000 0.000000
vn -1.000000 0.000000 0.000000
vn -1.000000 0.000000 0.000000
vn -1.000000 0.000000 0.000000
vn 0.000000 0.000000 1.000000
vn 0.000000 0.000000 1.000000
vn 0.000000 0.000000 1.000000
vn 0.000000 0.000000 1.000000
vn 0.000000 0.000000 1.000000
vn 0.000000 0.000000 1.000000
vn 0.000000 0.000000 1.000000
vn 0.000000 0.000000 1.000000
vn 0.000000 0.000000 -1.000000
vn 0.000000 0.000000 -1.000000
vn 0.000000 0.000000 -1.000000
vn 0.000000 0.000000 -1.000000
vn -0.000001 0.000000 1.000000
vn 0.000000 0.000000 1.000000
vn 0.000000 0.000000 1.000000
vn -0.000001 0.000000 1.000000
vn -0.000000 0.000000 -1.000000
vn -0.000000 0.000000 -1.000000
vn 0.000000 0.000000 -1.000000
vn -0.000000 0.000000 -1.000000
vn 0.000000 0.000000 -1.000000
vn 0.000000 0.000000 -1.000000
vn 0.000000 1.000000 -0.000000
vn 0.000000 1.000000 -0.000000
vn 0.000000 -1.000000 0.000000
vn 0.000000 -1.000000 0.000000
vn -0.000000 1.000000 0.000001
vn -0.000000 1.000000 0.000001
vn 0.000000 0.000000 1.000000
vn 0.000000 0.000000 1.000000
vn 0.000001 0.000000 -1.000000
vn 0.000001 0.000000 -1.000000
vn 0.000000 1.000000 0.000000
vn 0.000000 1.000000 0.000000
vn 0.000000 1.000000 0.000000
vn 0.000000 1.000000 0.000000
vn 0.000000 0.000000 1.000000
vn 0.000000 0.000000 1.000000
vn 0.000000 0.000000 1.000000
vn 0.000000 0.000000 1.000000
vn 0.000000 0.000000 -1.000000
vn 0.000000 0.000000 -1.000000
vn 0.000000 0.000000 -1.000000
vn 0.000000 0.000000 -1.000000
vn -1.000000 0.000000 0.000000
vn -1.000000 0.000000 0.000000
vn -1.000000 0.000000 0.000000
vn -1.000000 0.000000 0.000000
vn -0.000001 0.000000 1.000000
vn -0.000001 0.000000 1.000000
vn -0.000001 0.000000 1.000000
vn -0.000001 0.000000 1.000000
vn 0.000000 1.000000 0.000000
vn 0.000000 1.000000 0.000000
vn 0.000000 1.000000 0.000000
vn 0.000000 1.000000 0.000000
vn -0.000001 0.000000 -1.000000
vn -0.000001 0.000000 -1.000000
vn -0.000001 0.000000 -1.000000
vn -0.000001 0.000000 -1.000000
vn 0.000000 -1.000000 -0.000000
vn 0.000000 -1.000000 0.000000
vn 0.000000 -1.000000 0.000000
vn 0.000000 -1.000000 -0.000000
vn 0.000000 1.000000 0.000000
vn 0.000000 1.000000 -0.000001
vn 0.000000 1.000000 -0.000001
vn 0.000000 1.000000 0.000000
vn 0.000000 -1.000000 0.000000
vn 0.000000 -1.000000 0.000000
vn 0.000000 -1.000000 0.000000
vn 0.000000 -1.000000 0.000000
vn 0.000000 1.000000 0.000001
vn 0.000000 1.000000 0.000000
vn 0.000000 1.000000 0.000000
vn 0.000000 1.000000 0.000001
vn 0.000000 -1.000000 0.000000
vn 0.000000 -1.000000 -0.000000
vn 0.000000 -1.000000 -0.000000
vn 0.000000 -1.000000 0.000000
vn 0.000000 1.000000 -0.000000
vn 0.000000 1.000000 0.000000
vn 0.000000 1.000000 0.000000
vn 0.000000 1.000000 -0.000000
vn 0.000000 0.000000 -1.000000
vn 0.000000 0.000000 -1.000000
vn 0.000000 0.000000 -1.000000
vn 0.000000 0.000000 -1.000000
vn 0.000000 0.000000 1.000000
vn 0.000000 0.000000 1.000000
vn 0.000000 0.000000 1.000000
vn 0.000000 0.000000 1.000000
vn 0.000000 0.000000 1.000000
vn 0.000000 0.000000 1.000000
vn 0.000000 0.000000 1.000000
vn 0.000000 0.000000 1.000000
vn 1.000000 0.000000 0.000000
vn 1.000000 0.000000 0.000000
vn 1.000000 0.000000 0.000000
vn 1.000000 0.000000 0.000000
vn 0.000000 0.000000 -1.000000
vn 0.000000 0.000000 -1.000000
vn 0.000000 0.000000 -1.000000
vn 0.000000 0.000000 -1.000000
usemtl aiStandardSurface31SG
f 25/17/1 26/18/2 27/19/3 28/20/4
f 25/17/5 28/20/6 29/23/7 30/24/8
f 9/107/9 10/108/10 11/109/11 12/110/12
f 13/119/13 14/120/14 15/121/15 16/122/16
f 15/121/17 17/125/18 18/126/19 16/122/20
f 17/1/21 19/2/22 20/3/23 18/4/24
f 19/113/25 9/107/26 12/110/27 20/114/28
f 11/109/11 10/108/10 21/111/29 22/112/30
f 27/19/3 26/18/2 31/21/31 32/22/32
f 23/123/33 24/124/34 14/120/14 13/119/13
f 22/112/30 21/111/29 35/115/35 36/116/36
f 32/22/32 31/21/31 39/25/37 40/26/38
f 42/129/39 37/128/40 38/127/41 41/130/42
f 49/29/43 50/30/44 10/31/45 9/32/46
f 5/53/47 1/54/48 12/55/49 11/56/50
f 51/45/51 52/43/52 15/44/53 14/46/54
f 2/65/55 6/69/56 13/70/57 16/66/58
f 52/43/52 53/39/59 17/40/60 15/44/53
f 3/61/61 2/65/55 16/66/58 18/62/62
f 53/39/59 54/35/63 19/36/64 17/40/60
f 4/57/65 3/61/61 18/62/62 20/58/66
f 54/35/63 49/29/43 9/32/46 19/36/64
f 1/54/48 4/57/65 20/58/66 12/55/49
f 50/30/44 55/33/67 21/34/68 10/31/45
f 7/59/69 5/53/47 11/56/50 22/60/70
f 56/47/71 51/45/51 14/46/54 24/48/72
f 6/69/56 8/71/73 23/72/74 13/70/57
f 55/33/67 57/37/75 35/38/76 21/34/68
f 44/67/77 33/64/78 36/63/79 43/68/80
f 58/51/81 59/50/82 37/49/83 42/52/84
f 8/71/73 34/73/85 38/74/86 23/72/74
f 1/131/87 5/132/88 26/133/89 25/134/90
f 6/143/91 2/144/92 28/145/93 27/146/94
f 2/144/95 3/147/96 29/148/97 28/145/98
f 3/5/99 4/6/100 30/7/101 29/8/102
f 4/137/103 1/131/104 25/134/105 30/138/106
f 5/132/107 7/135/108 31/136/109 26/133/110
f 8/149/111 6/143/112 27/146/113 32/150/114
f 7/135/115 33/139/116 39/140/117 31/136/118
f 46/153/119 34/152/120 40/151/121 45/154/122
f 36/116/36 35/115/35 47/117/123 43/118/124
f 40/26/38 39/25/37 48/27/125 45/28/126
f 38/127/41 37/128/40 24/124/34 23/123/33
f 35/38/76 57/37/75 60/41/127 47/42/128
f 36/63/79 33/64/78 7/59/69 22/60/70
f 37/49/83 59/50/82 56/47/71 24/48/72
f 38/74/86 34/73/85 46/75/129 41/76/130
f 39/140/117 33/139/116 44/141/131 48/142/132
f 40/151/121 34/152/120 8/149/133 32/150/134
f 80/77/135 79/78/136 81/79/137 82/80/138
f 67/155/139 68/156/140 69/157/141 70/158/142
f 71/161/143 72/162/144 73/163/145 74/164/146
f 75/9/147 76/10/148 77/11/149 78/12/150
f 67/155/151 70/158/152 77/159/153 76/160/154
f 80/77/155 82/80/156 83/81/157 84/82/158
f 73/163/159 72/162/160 75/165/161 78/166/162
f 85/83/163 86/84/164 68/85/165 67/86/166
f 62/95/167 63/96/168 70/97/169 69/98/170
f 87/93/171 88/91/172 72/92/173 71/94/174
f 64/103/175 61/105/176 74/106/177 73/104/178
f 89/89/179 90/87/180 76/88/181 75/90/182
f 65/99/183 66/101/184 78/102/185 77/100/186
f 63/96/168 65/99/183 77/100/186 70/97/169
f 90/87/180 85/83/163 67/86/166 76/88/181
f 88/91/172 89/89/179 75/90/182 72/92/173
f 66/101/184 64/103/175 73/104/178 78/102/185
f 63/167/187 62/168/188 79/169/189 80/170/190
f 61/173/191 64/174/192 82/175/193 81/176/194
f 64/174/195 66/177/196 83/178/197 82/175/198
f 66/13/199 65/14/200 84/15/201 83/16/202
f 65/171/203 63/167/204 80/170/205 84/172/206
