# This file uses meters as units for non-parametric coordinates.

mtllib Back_Building_middle.mtl
v 4607.964085 2533.689171 2533.950335
v 4607.964085 1783.617531 2533.950335
v 4702.507105 1783.617516 2533.949809
v 4702.507105 2563.152550 2533.950335
v 4607.964085 2534.182091 1435.212728
v 4607.964085 1783.617531 1435.212728
v 4702.507105 1783.617516 1435.212728
v 4702.507105 2563.152550 1435.212728
v 4743.199897 1783.617516 2533.949809
v 4743.199897 2563.152550 2533.950335
v 4743.199897 1783.617516 1435.212728
v 4743.199897 2563.152550 1435.212728
v 4702.507105 2801.266197 1435.212728
v 4702.507105 2801.266197 2533.950335
v 4743.199897 2801.266197 2533.950335
v 4743.199897 2801.266197 1435.212728
v 4702.507105 2044.419548 2533.949809
v 4743.199897 2044.419548 2533.949809
v 4743.199897 2044.419548 1435.212728
v 4702.507105 2044.419548 1435.212728
v 4607.964085 2066.615318 1435.212728
v 4607.964085 2066.615318 2533.950335
v 4546.258949 2467.318077 2533.950335
v 4546.258949 2467.318382 1435.212728
v 4546.260071 2563.152550 1435.212728
v 4546.260071 2801.266197 1435.212728
v 4546.260071 2801.266197 2533.950335
v 4546.260071 2563.152550 2533.950335
v 4546.260071 2512.010826 2533.950335
v 3104.738843 2512.010826 2533.950335
v 3104.738843 2488.358116 1435.212728
v 4546.260071 2488.358116 1435.212728
v 4702.507105 2524.732018 1435.212728
v 4743.199897 2524.732018 1435.212728
v 4743.199897 2524.732018 2533.950335
v 4702.507105 2524.732018 2533.950335
v 4784.466948 2524.732018 2533.950335
v 4784.466948 2563.152550 2533.950335
v 4805.433285 2524.732018 1435.212728
v 4805.433285 2563.152550 1435.212728
v 4389.155761 2467.318077 2533.950335
v 4389.155761 2467.318382 1435.212728
v 4389.155761 2488.358055 1435.212728
v 4389.155761 2563.152550 1435.212728
v 4389.155761 2801.266197 1435.212728
v 4389.155761 2801.266197 2533.950335
v 4389.155761 2563.152550 2533.950335
v 4389.155761 2512.010765 2533.950335
v 4607.964085 2294.444664 2533.950335
v 4607.964085 2294.444664 1435.212728
v 4702.507105 2345.254723 2533.950335
v 4743.199897 2345.254723 2533.950335
v 4743.199897 2345.254723 1435.212728
v 4702.507105 2345.254723 1435.212728
v 4224.637408 2467.318077 2533.950335
v 4224.637782 2467.318382 1435.212728
v 4224.637408 2801.266197 2533.950335
v 4224.637782 2488.358055 1435.212728
v 4224.637782 2563.152550 1435.212728
v 4224.637782 2801.266197 1435.212728
v 4224.637408 2563.152550 2533.950335
v 4224.637408 2512.010826 2533.950335
v 3104.738843 2467.317955 2533.950335
v 3104.738843 2467.318321 1435.212728
v 3104.738843 2801.266197 2533.950335
v 3104.738843 2563.152550 2533.950335
v 3104.738843 2563.152550 1435.212728
v 3104.738843 2801.266197 1435.212728
vt 0.848715 0.016715
vt 0.868886 0.016715
vt 0.868886 0.080223
vt 0.848715 0.079755
vt 0.421802 0.580771
vt 0.737351 0.580771
vt 0.737351 0.774134
vt 0.421802 0.774134
vt 0.737351 0.340586
vt 0.421802 0.340586
vt 0.737351 0.977185
vt 0.421802 0.977604
vt 0.380365 0.518084
vt 0.065838 0.518084
vt 0.065838 0.407084
vt 0.380365 0.407084
vt 0.065838 0.541845
vt 0.380365 0.541845
vt 0.065838 0.221028
vt 0.380365 0.221028
vt 0.380365 0.689110
vt 0.065838 0.689110
vt 0.065838 0.059732
vt 0.380365 0.059732
vt 0.975885 0.019868
vt 0.975885 0.027195
vt 0.955714 0.027195
vt 0.955714 0.019868
vt 0.955714 0.016715
vt 0.975885 0.016715
vt 0.831669 0.028889
vt 0.811498 0.028889
vt 0.811498 0.016715
vt 0.831669 0.016715
vt 0.831669 0.041638
vt 0.811498 0.041638
vt 0.811498 0.128421
vt 0.831669 0.128421
vt 0.405160 0.720631
vt 0.396765 0.720631
vt 0.396765 0.550162
vt 0.405160 0.550162
vt 0.396765 0.757123
vt 0.405160 0.757123
vt 0.396765 0.264427
vt 0.405160 0.264427
vt 0.405160 0.983285
vt 0.396765 0.983285
vt 0.396765 0.016715
vt 0.405160 0.016715
vt 0.364533 0.983285
vt 0.364533 0.757123
vt 0.332123 0.983285
vt 0.332123 0.757123
vt 0.298185 0.983285
vt 0.298185 0.757123
vt 0.332123 0.708548
vt 0.364533 0.708548
vt 0.067160 0.757123
vt 0.067160 0.983285
vt 0.298185 0.708548
vt 0.067160 0.708548
vt 0.758721 0.735573
vt 0.750326 0.735573
vt 0.750326 0.449838
vt 0.758721 0.449838
vt 0.750326 0.983285
vt 0.758721 0.983285
vt 0.750326 0.279369
vt 0.758721 0.279369
vt 0.750326 0.242877
vt 0.758721 0.242877
vt 0.750326 0.016715
vt 0.758721 0.016715
vt 0.718094 0.242877
vt 0.718094 0.016715
vt 0.685684 0.242877
vt 0.685684 0.016715
vt 0.685684 0.313917
vt 0.718094 0.313917
vt 0.651746 0.242877
vt 0.651746 0.016715
vt 0.651746 0.313917
vt 0.420720 0.242877
vt 0.420720 0.016715
vt 0.420720 0.313917
vt 0.885932 0.053207
vt 0.885932 0.016715
vt 0.902840 0.016715
vt 0.902840 0.053207
vt 0.918497 0.053207
vt 0.918497 0.016715
vt 0.939730 0.016715
vt 0.939730 0.053207
vn 0.291251 -0.956647 -0.000061
vn 0.291261 -0.956644 -0.000061
vn 0.733638 -0.679541 -0.000153
vn 0.733638 -0.679541 -0.000153
vn -1.000000 0.000000 0.000000
vn -1.000000 0.000000 0.000000
vn -1.000000 0.000000 0.000000
vn -1.000000 0.000000 0.000000
vn -0.000000 -1.000000 0.000000
vn -0.000000 -1.000000 0.000000
vn -0.000000 -1.000000 0.000000
vn -0.000000 -1.000000 0.000000
vn 1.000000 0.000000 0.000000
vn 1.000000 0.000000 0.000000
vn 1.000000 0.000000 0.000000
vn 1.000000 0.000000 0.000000
vn 0.000000 0.000000 1.000000
vn 0.000000 0.000000 1.000000
vn 0.000000 -0.000001 1.000000
vn 0.000000 -0.000001 1.000000
vn 0.000000 -1.000000 0.000000
vn 0.000000 -1.000000 0.000000
vn 0.000000 -1.000000 0.000000
vn 0.000000 -1.000000 0.000000
vn 0.000000 0.000000 -1.000000
vn 0.000000 0.000000 -1.000000
vn 0.000000 0.000000 -1.000000
vn 0.000000 0.000000 -1.000000
vn 0.000000 0.000000 -1.000000
vn 0.000000 0.000000 -1.000000
vn 0.000000 0.000000 -1.000000
vn 0.000000 0.000000 -1.000000
vn 0.000000 0.000000 1.000000
vn 0.000000 0.000000 1.000000
vn 0.000000 0.000000 1.000000
vn 0.000000 0.000000 1.000000
vn 0.000000 0.000000 1.000000
vn 0.000000 0.000000 1.000000
vn 0.000000 0.000000 1.000000
vn 0.000000 0.000000 1.000000
vn 1.000000 0.000000 0.000000
vn 1.000000 0.000000 0.000000
vn 1.000000 0.000000 0.000000
vn 1.000000 0.000000 0.000000
vn 0.000000 0.000000 -1.000000
vn 0.000000 0.000000 -1.000000
vn 0.000000 0.000000 -1.000000
vn 0.000000 0.000000 -1.000000
vn 0.000000 -0.000001 1.000000
vn 0.000000 -0.000001 1.000000
vn 0.000000 0.000000 1.000000
vn 0.000000 0.000000 1.000000
vn 1.000000 0.000000 0.000000
vn 1.000000 0.000000 0.000000
vn 1.000000 0.000000 0.000000
vn 1.000000 0.000000 0.000000
vn 0.000000 0.000000 -1.000000
vn 0.000000 0.000000 -1.000000
vn -1.000000 0.000000 0.000000
vn -1.000000 0.000000 0.000000
vn 0.000000 -1.000000 -0.000000
vn 0.000000 -1.000000 -0.000000
vn 0.000000 0.000000 -1.000000
vn 0.000000 0.000000 -1.000000
vn 0.000000 0.000000 1.000000
vn 0.000000 0.000000 1.000000
vn 0.000000 0.000000 1.000000
vn 0.000000 0.000000 1.000000
vn 0.000000 0.000000 1.000000
vn 0.000000 0.000000 1.000000
vn 0.000000 0.000000 -1.000000
vn 0.000000 0.000000 -1.000000
vn 0.000000 0.000000 -1.000000
vn 0.000000 0.000000 -1.000000
vn 0.000000 0.000000 -1.000000
vn 0.000000 0.000000 -1.000000
vn 0.000000 0.000000 -1.000000
vn 0.000000 0.000000 -1.000000
vn 1.000000 0.000000 0.000000
vn 1.000000 0.000000 0.000000
vn 0.000000 0.000000 1.000000
vn 0.000000 0.000000 1.000000
vn 0.000000 0.000000 -1.000000
vn 0.000000 0.000000 -1.000000
vn 0.000000 0.000000 -1.000000
vn 0.000000 0.000000 -1.000000
vn 0.000000 0.000000 1.000000
vn 0.000000 0.000000 1.000000
vn 0.000000 0.000000 1.000000
vn 0.000000 0.000000 1.000000
vn 0.000000 -1.000000 -0.000000
vn 0.000000 -1.000000 -0.000000
vn 0.000000 -1.000000 -0.000000
vn 0.000000 -1.000000 -0.000000
vn 0.000000 0.000000 -1.000000
vn 0.000000 0.000000 -1.000000
vn 0.000000 0.000000 -1.000000
vn 0.000000 0.000000 -1.000000
vn 0.000000 0.000000 -1.000000
vn 0.000000 0.000000 -1.000000
vn 0.000000 0.000000 1.000000
vn 0.000000 0.000000 1.000000
vn 0.000000 0.000000 1.000000
vn 0.000000 0.000000 1.000000
vn 0.000000 0.000000 1.000000
vn 0.000000 0.000000 1.000000
vn -1.000000 0.000000 0.000000
vn -1.000000 0.000000 0.000000
vn 0.000000 0.000000 -1.000000
vn 0.000000 0.000000 -1.000000
vn 0.000000 0.000000 1.000000
vn 0.000000 0.000000 1.000000
usemtl aiStandardSurface30SG
f 23/1/1 24/2/2 5/3/3 1/4/4
f 21/5/5 22/6/6 49/7/7 50/8/8
f 3/25/9 2/26/10 6/27/11 7/28/12
f 34/13/13 35/14/14 52/15/15 53/16/16
f 35/39/17 36/40/18 51/41/19 52/42/20
f 3/25/21 7/28/22 11/29/23 9/30/24
f 19/63/25 20/64/26 54/65/27 53/66/28
f 8/71/29 25/75/30 26/76/31 13/73/32
f 27/51/33 28/52/34 4/43/35 14/48/36
f 4/43/37 10/44/38 15/47/39 14/48/40
f 10/17/41 12/18/42 16/21/43 15/22/44
f 12/72/45 8/71/46 13/73/47 16/74/48
f 18/46/49 17/45/50 3/49/51 9/50/52
f 19/20/53 18/19/54 9/23/55 11/24/56
f 7/67/57 20/64/26 19/63/25 11/68/58
f 2/9/59 22/6/6 21/5/5 6/10/60
f 41/31/61 42/32/62 24/33/2 23/34/1
f 26/76/31 25/75/30 44/77/63 45/78/64
f 46/53/65 47/54/66 28/52/34 27/51/33
f 28/52/67 47/54/68 48/57/69 29/58/70
f 43/79/71 44/77/72 25/75/73 32/80/74
f 34/70/75 33/69/76 8/71/77 12/72/78
f 10/17/79 35/14/14 34/13/13 12/18/80
f 4/43/81 36/40/18 35/39/17 10/44/82
f 36/87/83 4/88/84 38/89/85 37/90/86
f 8/91/87 33/92/88 39/93/89 40/94/90
f 64/37/91 56/36/92 55/35/93 63/38/94
f 67/84/95 59/81/96 58/83/97 31/86/98
f 45/78/64 44/77/63 59/81/99 60/82/100
f 66/59/101 61/56/102 57/55/103 65/60/104
f 48/57/69 47/54/68 61/56/105 62/61/106
f 50/8/8 49/7/7 1/11/107 5/12/108
f 53/16/16 52/15/15 18/19/54 19/20/53
f 52/42/20 51/41/19 17/45/50 18/46/49
f 53/66/28 54/65/27 33/69/76 34/70/75
f 55/35/93 56/36/92 42/32/62 41/31/61
f 58/83/97 59/81/96 44/77/72 43/79/71
f 60/82/100 59/81/99 67/84/109 68/85/110
f 57/55/103 61/56/102 47/54/66 46/53/65
f 62/61/106 61/56/105 66/59/111 30/62/112
