# This file uses meters as units for non-parametric coordinates.

mtllib Entrance_Ramp.mtl
v -4487.799294 93.976286 2817.881649
v -4263.109688 93.976076 2818.005788
v -4265.515044 84.599668 3827.465463
v -4483.773077 93.976286 3826.670438
v -5182.096334 294.038629 2817.881649
v -5184.486340 295.313613 3826.670438
v -5184.486340 120.184899 3826.670438
v -5182.096334 120.184899 2817.881649
v -5184.486340 117.656347 4076.139048
v -5182.096334 116.189160 2634.707143
vt 0.877520 0.001546
vt 0.998008 0.001613
vt 0.996718 0.542928
vt 0.879679 0.542502
vt 0.503926 0.542502
vt 0.505208 0.001546
vt 0.003274 0.676278
vt 0.001992 0.135322
vt 0.494784 0.134896
vt 0.496074 0.676211
vt 0.001992 0.001546
vt 0.003274 0.774504
vn -0.021155 -0.999766 -0.004628
vn -0.021155 -0.999766 -0.004628
vn -0.021155 -0.999766 -0.004628
vn -0.021155 -0.999766 -0.004628
vn 0.218111 0.975914 0.004436
vn 0.218111 0.975914 0.004436
vn 0.218111 0.975914 0.004436
vn 0.218111 0.975914 0.004436
vn -0.037548 -0.999295 0.000030
vn -0.037548 -0.999295 0.000030
vn -0.037548 -0.999295 0.000030
vn -0.037548 -0.999295 0.000030
vn 0.183121 0.800785 0.570273
vn 0.183121 0.800784 0.570273
vn 0.183121 0.800785 0.570273
vn 0.154410 0.708854 -0.688247
vn 0.154410 0.708854 -0.688247
vn 0.154410 0.708854 -0.688247
usemtl aiStandardSurface22SG
f 1/1/1 2/2/2 3/3/3 4/4/4
f 5/7/5 6/8/6 3/9/7 2/10/8
f 7/5/9 8/6/10 1/1/11 4/4/12
f 3/9/13 6/8/14 9/11/15
f 5/7/16 2/10/17 10/12/18
