# This file uses meters as units for non-parametric coordinates.

mtllib LShapes.mtl
v 3302.817871 1783.617522 -6976.048340
v 3302.817871 2044.419554 -6976.048340
v 3145.713623 2044.419554 -6976.048340
v 3145.713623 1783.617522 -6976.048340
v 3302.817871 2345.254729 -6976.048340
v 3145.713623 2345.254729 -6976.048340
v 3302.817871 1783.617522 -6617.781250
v 3302.817871 2044.419554 -6617.781250
v 3145.713623 2044.419554 -6617.781250
v 3145.713623 1783.617522 -6617.781250
v 3302.817871 2345.254729 -6617.781250
v 3145.713623 2345.254729 -6617.781250
v 3302.817871 1783.617522 -6723.790527
v 3302.817871 2044.419554 -6723.790527
v 3302.817871 2345.254729 -6723.790527
v 3145.713623 2345.254729 -6723.790527
v 3145.713623 2044.419554 -6723.790527
v 3145.713623 1783.617522 -6723.790527
v 3723.636719 1783.617522 -6723.790527
v 3723.636719 2044.419554 -6723.790527
v 3723.636719 2044.419554 -6617.781250
v 3723.636719 1783.617522 -6617.781250
v 3723.636719 2345.254729 -6723.790527
v 3723.636719 2345.254729 -6617.781250
v 4389.155762 1783.617522 -6369.316895
v 4389.155762 2044.419554 -6369.316895
v 4546.259766 2044.419554 -6369.316895
v 4546.259766 1783.617522 -6369.316895
v 4389.155762 2345.254729 -6369.316895
v 4546.259766 2345.254729 -6369.316895
v 4389.155762 1783.617522 -6727.583984
v 4389.155762 2044.419554 -6727.583984
v 4546.259766 2044.419554 -6727.583984
v 4546.259766 1783.617522 -6727.583984
v 4389.155762 2345.254729 -6727.583984
v 4546.259766 2345.254729 -6727.583984
v 4389.155762 1783.617522 -6621.574219
v 4389.155762 2044.419554 -6621.574219
v 4389.155762 2345.254729 -6621.574219
v 4546.259766 2345.254729 -6621.574219
v 4546.259766 2044.419554 -6621.574219
v 4546.259766 1783.617522 -6621.574219
v 3968.337158 1783.617522 -6621.574219
v 3968.337158 2044.419554 -6621.574219
v 3968.337158 2044.419554 -6727.583984
v 3968.337158 1783.617522 -6727.583984
v 3968.337158 2345.254729 -6621.574219
v 3968.337158 2345.254729 -6727.583984
v 4389.155762 2308.176787 -6369.316895
v 4546.259766 2308.176787 -6369.316895
v 4546.259766 2308.176787 -6621.574219
v 4546.259766 2308.176787 -6727.583984
v 4389.155762 2308.176787 -6727.583984
v 3968.337158 2308.176787 -6727.583984
v 3968.337158 2308.176787 -6621.574219
v 4389.155762 2308.176787 -6621.574219
v 3302.817871 2304.648589 -6976.048828
v 3145.713623 2304.648589 -6976.048828
v 3145.713623 2304.648589 -6723.790527
v 3145.713623 2304.648589 -6617.781250
v 3302.817871 2304.648589 -6617.781250
v 3723.636719 2304.648589 -6617.781250
v 3723.636719 2304.648589 -6723.790527
v 3302.817871 2304.648589 -6723.790527
v 4565.594238 2308.176787 -6743.250977
v 4389.155762 2308.176787 -6743.250977
v 4389.155762 2345.254729 -6743.250977
v 4565.594238 2345.254729 -6743.250977
v 3955.447510 2308.176787 -6743.250977
v 3955.447510 2308.176970 -6608.684570
v 3955.447510 2345.254912 -6608.685059
v 3955.447510 2345.254729 -6743.250977
v 4565.594238 2345.254912 -6621.574219
v 4565.594238 2308.176970 -6621.574219
v 4375.936523 2308.176970 -6608.684570
v 4375.936035 2308.176787 -6369.316895
v 4375.936035 2345.254729 -6369.316895
v 4375.936523 2345.254912 -6608.685059
v 4565.594238 2308.177153 -6369.316895
v 4565.594238 2345.255095 -6369.316895
v 3124.547363 2304.648589 -6600.786133
v 3302.817871 2304.648589 -6600.786133
v 3302.817871 2345.254729 -6600.786133
v 3124.547363 2345.254729 -6600.786133
v 3321.207031 2304.648833 -6994.437988
v 3124.547363 2304.648833 -6994.437988
v 3124.547363 2345.254973 -6994.437500
v 3321.207031 2345.254973 -6994.437500
v 3742.025879 2304.648589 -6600.786133
v 3742.025879 2304.648589 -6742.179688
v 3742.025879 2345.254729 -6742.179688
v 3742.025879 2345.254729 -6600.786133
v 3124.547363 2345.254729 -6723.790527
v 3124.547363 2304.648589 -6723.790527
v 3321.207031 2304.648589 -6742.179688
v 3321.207031 2345.254729 -6742.179688
vt 0.520834 0.309292
vt 0.520834 0.446246
vt 0.465166 0.446246
vt 0.465166 0.309292
vt 0.520834 0.604222
vt 0.465166 0.604222
vt 0.403362 0.446246
vt 0.403362 0.309292
vt 0.459030 0.309292
vt 0.459030 0.446246
vt 0.270896 0.446246
vt 0.270896 0.309292
vt 0.403362 0.604222
vt 0.459030 0.604222
vt 0.270896 0.604222
vt 0.264760 0.309292
vt 0.264760 0.446246
vt 0.132294 0.446246
vt 0.132294 0.309292
vt 0.264760 0.604222
vt 0.132294 0.604222
vt 0.375534 0.608213
vt 0.375534 0.745166
vt 0.319866 0.745166
vt 0.319866 0.608213
vt 0.375534 0.903142
vt 0.319866 0.903142
vt 0.514699 0.745166
vt 0.514699 0.608213
vt 0.570367 0.608213
vt 0.570367 0.745166
vt 0.382233 0.745166
vt 0.382233 0.608213
vt 0.514699 0.903142
vt 0.570367 0.903142
vt 0.382233 0.903142
vt 0.709594 0.616765
vt 0.709594 0.753718
vt 0.577128 0.753718
vt 0.577128 0.616765
vt 0.709594 0.911694
vt 0.577128 0.911694
vt 0.436741 0.305301
vt 0.436741 0.222802
vt 0.492409 0.222802
vt 0.492409 0.305301
vt 0.304275 0.305301
vt 0.304275 0.222802
vt 0.436741 0.001820
vt 0.492409 0.001820
vt 0.554838 0.222802
vt 0.554838 0.305301
vt 0.499170 0.305301
vt 0.499170 0.222802
vt 0.687305 0.222802
vt 0.687305 0.305301
vt 0.499170 0.001820
vt 0.554838 0.001820
vt 0.865542 0.309292
vt 0.865542 0.391791
vt 0.809874 0.391791
vt 0.809874 0.309292
vt 0.998008 0.309292
vt 0.998008 0.391791
vt 0.865542 0.612773
vt 0.809874 0.612773
vt 0.748070 0.391792
vt 0.748070 0.309292
vt 0.803738 0.309292
vt 0.803738 0.391792
vt 0.615604 0.391792
vt 0.615604 0.309292
vt 0.803738 0.612773
vt 0.748070 0.612773
vt 0.088705 0.018273
vt 0.088156 0.147247
vt 0.010463 0.146916
vt 0.011013 0.017942
vt 0.296812 0.019160
vt 0.296263 0.148135
vt 0.087521 0.296019
vt 0.009829 0.295688
vt 0.295628 0.296906
vt 0.609468 0.604222
vt 0.526969 0.604222
vt 0.526969 0.467268
vt 0.609468 0.467268
vt 0.526969 0.309292
vt 0.609468 0.309292
vt 0.001992 0.903142
vt 0.001992 0.766189
vt 0.222974 0.766189
vt 0.222974 0.903142
vt 0.001992 0.608213
vt 0.222974 0.608213
vt 0.911003 0.300916
vt 0.910787 0.163962
vt 0.993286 0.163833
vt 0.993502 0.300786
vt 0.690021 0.301263
vt 0.689806 0.164310
vt 0.910539 0.005987
vt 0.993038 0.005857
vt 0.689558 0.006334
vt 0.230214 0.903142
vt 0.230214 0.766189
vt 0.312714 0.766189
vt 0.312714 0.903142
vt 0.230214 0.608213
vt 0.312714 0.608213
vt 0.938434 0.616765
vt 0.938434 0.753718
vt 0.717453 0.753718
vt 0.717453 0.616765
vt 0.938434 0.911694
vt 0.717453 0.911694
vt 0.230214 0.627684
vt 0.709594 0.892223
vt 0.312714 0.627684
vt 0.382233 0.883672
vt 0.514699 0.883672
vt 0.570367 0.883672
vt 0.993069 0.025328
vt 0.910570 0.025457
vt 0.689588 0.025805
vt 0.319866 0.883672
vt 0.375534 0.883672
vt 0.717453 0.892223
vt 0.938434 0.892223
vt 0.577128 0.892223
vt 0.264760 0.582898
vt 0.609468 0.330616
vt 0.526969 0.330616
vt 0.270896 0.582898
vt 0.403362 0.582898
vt 0.459030 0.582898
vt 0.009914 0.275607
vt 0.087607 0.275938
vt 0.295714 0.276825
vt 0.465166 0.582898
vt 0.520834 0.582898
vt 0.222974 0.629536
vt 0.001992 0.629536
vt 0.132294 0.582898
vt 0.993069 0.025328
vt 0.910570 0.025457
vt 0.910539 0.005987
vt 0.993038 0.005857
vt 0.319866 0.883672
vt 0.375534 0.883672
vt 0.375534 0.903142
vt 0.319866 0.903142
vt 0.514699 0.883672
vt 0.570367 0.883672
vt 0.570367 0.903142
vt 0.514699 0.903142
vt 0.577128 0.892223
vt 0.709594 0.892223
vt 0.709594 0.911694
vt 0.577128 0.911694
vt 0.382233 0.903142
vt 0.382233 0.883672
vt 0.717453 0.892223
vt 0.938434 0.892223
vt 0.938434 0.911694
vt 0.717453 0.911694
vt 0.689588 0.025805
vt 0.689558 0.006334
vt 0.009914 0.275607
vt 0.087607 0.275938
vt 0.087521 0.296019
vt 0.009829 0.295688
vt 0.609468 0.330616
vt 0.526969 0.330616
vt 0.526969 0.309292
vt 0.609468 0.309292
vt 0.465166 0.582898
vt 0.520834 0.582898
vt 0.520834 0.604222
vt 0.465166 0.604222
vt 0.403362 0.582898
vt 0.459030 0.582898
vt 0.459030 0.604222
vt 0.403362 0.604222
vt 0.132294 0.582898
vt 0.264760 0.582898
vt 0.264760 0.604222
vt 0.132294 0.604222
vt 0.270896 0.582898
vt 0.270896 0.604222
vt 0.222974 0.629536
vt 0.001992 0.629536
vt 0.001992 0.608213
vt 0.222974 0.608213
vt 0.295714 0.276825
vt 0.295628 0.296906
vn 0.000000 0.000000 1.000000
vn 0.000000 0.000000 1.000000
vn 0.000000 0.000000 1.000000
vn 0.000000 0.000000 1.000000
vn 0.000000 0.000000 1.000000
vn 0.000000 0.000000 1.000000
vn 0.000000 0.000000 1.000000
vn 0.000000 0.000000 1.000000
vn 0.000000 0.000000 -1.000000
vn 0.000000 0.000000 -1.000000
vn 0.000000 -0.000001 -1.000000
vn 0.000000 -0.000001 -1.000000
vn 0.000000 0.000012 -1.000000
vn 0.000000 0.000012 -1.000000
vn 0.000000 0.000012 -1.000000
vn 0.000000 0.000012 -1.000000
vn 1.000000 0.000000 0.000000
vn 1.000000 0.000000 0.000000
vn 1.000000 0.000000 0.000000
vn 1.000000 0.000000 0.000000
vn -1.000000 0.000000 0.000000
vn -1.000000 0.000000 0.000000
vn -1.000000 0.000000 0.000000
vn -1.000000 0.000000 0.000000
vn 0.000000 -1.000000 0.000000
vn 0.000000 -1.000000 0.000000
vn 0.000000 -1.000000 0.000000
vn 0.000000 -1.000000 0.000000
vn 1.000000 0.000000 0.000000
vn 1.000000 0.000000 0.000000
vn 1.000000 0.000000 0.000000
vn 1.000000 0.000000 0.000000
vn -0.000000 1.000000 0.000000
vn 0.000000 1.000000 0.000000
vn 0.000000 1.000000 0.000000
vn 0.000000 1.000000 -0.000000
vn -1.000000 0.000000 0.000000
vn -1.000000 0.000000 0.000000
vn -1.000000 0.000000 0.000000
vn -1.000000 0.000000 0.000000
vn 1.000000 0.000000 0.000000
vn 1.000000 0.000000 0.000000
vn 1.000000 0.000000 0.000000
vn 1.000000 0.000000 0.000000
vn 1.000000 0.000000 0.000000
vn 1.000000 0.000000 0.000000
vn 1.000000 0.000000 0.000000
vn 1.000000 0.000000 0.000000
vn -0.000001 1.000000 0.000001
vn 0.000001 1.000000 0.000001
vn -1.000000 0.000000 0.000000
vn -1.000000 0.000000 0.000000
vn -1.000000 0.000000 0.000000
vn -1.000000 0.000000 0.000000
vn 0.000000 -1.000000 0.000000
vn 0.000000 -1.000000 0.000000
vn 0.000000 0.000000 -1.000000
vn 0.000000 0.000000 -1.000000
vn 0.000000 0.000000 -1.000000
vn 0.000000 0.000000 -1.000000
vn 0.000000 0.000000 1.000000
vn 0.000000 0.000000 1.000000
vn 0.000000 0.000000 1.000000
vn 0.000000 0.000000 1.000000
vn 0.000000 -1.000000 0.000000
vn 0.000000 -1.000000 0.000000
vn 0.000000 -1.000000 0.000000
vn 0.000000 -1.000000 0.000000
vn 0.000000 0.000000 -1.000000
vn 0.000000 0.000000 -1.000000
vn 0.000000 0.000000 -1.000000
vn 0.000000 0.000000 -1.000000
vn 0.000000 1.000000 -0.000000
vn 0.000000 1.000000 -0.000000
vn 0.000000 0.000000 1.000000
vn 0.000000 0.000000 1.000000
vn 0.000000 0.000000 1.000000
vn 0.000000 0.000000 1.000000
vn 0.000000 0.000000 -1.000000
vn 0.000000 0.000000 -1.000000
vn 0.000000 0.000000 -1.000000
vn 0.000000 0.000000 -1.000000
vn 0.000000 0.000000 -1.000000
vn 0.000000 0.000000 -1.000000
vn 0.000000 0.000000 -1.000000
vn 0.000000 0.000000 -1.000000
vn 0.000000 0.000000 -1.000000
vn 0.000000 0.000000 -1.000000
vn 0.000000 0.000000 -1.000000
vn 0.000000 0.000000 -1.000000
vn 0.000000 0.000000 -1.000000
vn 0.000000 0.000000 -1.000000
vn -1.000000 0.000000 0.000000
vn -1.000000 0.000000 0.000000
vn -1.000000 0.000000 0.000000
vn -1.000000 0.000000 0.000000
vn 1.000000 0.000000 0.000000
vn 1.000000 0.000000 0.000000
vn 1.000000 0.000000 0.000000
vn 1.000000 0.000000 0.000000
vn 0.000000 -1.000000 0.000000
vn 0.000000 -1.000000 0.000000
vn 0.000000 -1.000000 0.000000
vn 0.000000 -1.000000 0.000000
vn -1.000000 0.000000 0.000000
vn -1.000000 0.000000 0.000000
vn -1.000000 0.000000 0.000000
vn -1.000000 0.000000 0.000000
vn 0.000000 1.000000 -0.000000
vn -0.000001 1.000000 -0.000000
vn -0.000001 1.000000 -0.000000
vn 0.000000 1.000000 0.000000
vn 1.000000 0.000000 0.000000
vn 1.000000 0.000000 0.000000
vn 1.000000 0.000000 0.000000
vn 1.000000 0.000000 0.000000
vn -1.000000 0.000000 0.000000
vn -1.000000 0.000000 0.000000
vn -1.000000 0.000000 0.000000
vn -1.000000 0.000000 0.000000
vn -1.000000 -0.000001 -0.000002
vn -1.000000 -0.000001 -0.000002
vn -1.000000 -0.000001 -0.000002
vn -1.000000 -0.000001 -0.000002
vn 0.000001 1.000000 0.000000
vn -0.000002 1.000000 -0.000000
vn 1.000000 0.000000 0.000000
vn 1.000000 0.000000 0.000000
vn 1.000000 0.000000 0.000000
vn 1.000000 0.000000 0.000000
vn 0.000000 -1.000000 0.000000
vn 0.000000 -1.000000 0.000000
vn 0.000000 0.000000 1.000000
vn 0.000000 0.000000 1.000000
vn 0.000000 0.000000 1.000000
vn 0.000000 0.000000 1.000000
vn 0.000000 0.000000 -1.000000
vn 0.000000 0.000000 -1.000000
vn 0.000000 0.000000 -1.000000
vn 0.000000 0.000000 -1.000000
vn 0.000000 -1.000000 0.000000
vn 0.000000 -1.000000 0.000000
vn 0.000000 -1.000000 0.000000
vn 0.000000 -1.000000 0.000000
vn 0.000000 0.000013 1.000000
vn 0.000000 0.000013 1.000000
vn 0.000000 0.000013 1.000000
vn 0.000000 0.000013 1.000000
vn 0.000000 1.000000 -0.000000
vn 0.000000 1.000000 -0.000002
vn 0.000000 0.000000 -1.000000
vn 0.000000 0.000000 -1.000000
vn 0.000000 0.000000 -1.000000
vn 0.000000 0.000000 -1.000000
vn 0.000000 0.000000 -1.000000
vn 0.000000 0.000000 -1.000000
vn 1.000000 0.000000 0.000000
vn 1.000000 0.000000 0.000000
vn 1.000000 0.000000 0.000000
vn 1.000000 0.000000 0.000000
vn 1.000000 0.000000 0.000000
vn 1.000000 0.000000 0.000000
vn 0.000000 0.000000 -1.000000
vn 0.000000 0.000000 -1.000000
vn 0.000000 0.000000 -1.000000
vn 0.000000 0.000000 -1.000000
vn 0.000000 0.000000 -1.000000
vn 0.000000 0.000000 -1.000000
vn -1.000000 0.000000 0.000000
vn -1.000000 0.000000 0.000000
vn -1.000000 0.000000 0.000000
vn -1.000000 0.000000 0.000000
vn 0.000000 0.000000 1.000000
vn 0.000000 0.000000 1.000000
vn 0.000000 0.000000 1.000000
vn 0.000000 0.000000 1.000000
vn -1.000000 0.000000 0.000000
vn -1.000000 0.000000 0.000000
vn -1.000000 0.000000 0.000000
vn -1.000000 0.000000 0.000000
vn 0.000000 -0.000002 -1.000000
vn 0.000000 -0.000002 -1.000000
vn -1.000000 0.000000 0.000000
vn -1.000000 0.000000 0.000000
vn -1.000000 0.000000 0.000000
vn -1.000000 0.000000 0.000000
vn -1.000000 0.000000 0.000000
vn -1.000000 0.000000 0.000000
vn 0.000000 0.000000 1.000000
vn 0.000000 0.000000 1.000000
vn 0.000000 0.000000 1.000000
vn 0.000000 0.000000 1.000000
vn 0.000000 0.000000 1.000000
vn 0.000000 0.000000 1.000000
vn 1.000000 0.000000 0.000000
vn 1.000000 0.000000 0.000000
vn 1.000000 0.000000 0.000000
vn 1.000000 0.000000 0.000000
vn 0.000000 0.000000 -1.000000
vn 0.000000 0.000000 -1.000000
vn 0.000000 0.000000 -1.000000
vn 0.000000 0.000000 -1.000000
vn 1.000000 0.000000 0.000000
vn 1.000000 0.000000 0.000000
vn 1.000000 0.000000 0.000000
vn 1.000000 0.000000 0.000000
vn 0.000002 -1.000000 -0.000000
vn 0.000000 -1.000000 -0.000004
vn 0.000000 -1.000000 -0.000004
vn 0.000003 -1.000000 -0.000000
vn -0.000003 1.000000 -0.000000
vn 0.000000 1.000000 0.000000
vn -0.000001 -1.000000 -0.000004
vn -0.000002 -1.000000 0.000011
vn -0.000002 -1.000000 0.000011
vn -0.000001 -1.000000 -0.000004
vn 0.000001 1.000000 0.000000
vn 0.000002 1.000000 -0.000013
vn 0.000011 -1.000000 0.000001
vn 0.000011 -1.000000 0.000001
vn -0.000011 1.000000 -0.000001
vn -0.000003 -1.000000 0.000009
vn -0.000007 -1.000000 0.000000
vn -0.000007 -1.000000 0.000000
vn -0.000003 -1.000000 0.000009
vn 0.000000 0.000000 1.000000
vn 0.000000 0.000000 1.000000
vn 0.000000 0.000000 1.000000
vn 0.000000 0.000000 1.000000
vn 0.000003 1.000000 -0.000010
vn 0.000007 1.000000 0.000001
vn -0.000006 0.000000 1.000000
vn -0.000006 0.000000 1.000000
vn -0.000006 0.000000 1.000000
vn -0.000006 0.000000 1.000000
vn 0.000014 -1.000000 0.000000
vn 0.000014 -1.000000 0.000000
vn -0.000014 1.000000 -0.000000
vn 0.000000 -1.000000 0.000001
vn 0.000000 -1.000000 0.000000
vn 0.000000 -1.000000 0.000000
vn 0.000000 -1.000000 0.000000
vn 0.000000 1.000000 0.000000
vn 0.000000 1.000000 -0.000000
vn 0.000004 -1.000000 -0.000005
vn -0.000003 -1.000000 -0.000005
vn -0.000004 -1.000000 -0.000005
vn 0.000004 -1.000000 -0.000005
vn -0.000004 1.000000 0.000005
vn 0.000004 1.000000 0.000004
vn 0.000000 -1.000000 0.000000
vn 0.000000 -1.000000 0.000000
vn 0.000000 -1.000000 0.000000
vn 0.000000 -1.000000 0.000000
vn 0.000000 1.000000 -0.000000
vn 0.000000 1.000000 -0.000000
vn -0.000004 -1.000000 -0.000000
vn -0.000004 -1.000000 -0.000000
vn 0.000004 1.000000 0.000000
vn 0.000002 -1.000000 0.000000
vn 0.000002 -1.000000 0.000000
vn -0.000002 1.000000 0.000000
usemtl aiStandardSurface34SG
f 7/75/1 8/76/2 9/77/3 10/78/4
f 81/169/5 82/170/6 83/171/7 84/172/8
f 1/84/9 4/85/10 3/86/11 2/87/12
f 85/173/13 86/174/14 87/175/15 88/176/16
f 19/1/17 20/2/18 21/3/19 22/4/20
f 17/7/21 18/8/22 10/9/23 9/10/24
f 18/43/25 13/44/26 7/45/27 10/46/28
f 89/177/29 90/178/30 91/179/31 92/180/32
f 15/51/33 16/52/34 12/53/35 11/54/36
f 93/184/37 94/181/38 81/182/39 84/183/40
f 1/16/41 2/17/42 14/18/43 13/19/44
f 95/185/45 85/186/46 88/187/47 96/188/48
f 5/55/49 6/56/50 16/52/34 15/51/33
f 87/190/51 86/189/52 94/181/38 93/184/37
f 3/11/53 4/12/54 18/8/22 17/7/21
f 4/47/55 1/48/56 13/44/26 18/43/25
f 13/90/57 14/91/58 20/92/59 19/93/60
f 8/76/61 7/75/62 22/79/63 21/80/64
f 7/45/65 13/44/66 19/49/67 22/50/68
f 90/191/69 95/192/70 96/193/71 91/194/72
f 15/51/33 11/54/36 24/57/73 23/58/74
f 83/171/75 82/170/76 89/195/77 92/196/78
f 31/96/79 32/97/80 33/98/81 34/99/82
f 65/145/83 66/146/84 67/147/85 68/148/86
f 25/105/87 26/106/88 27/107/89 28/108/90
f 26/106/88 49/117/91 50/119/92 27/107/89
f 43/22/93 44/23/94 45/24/95 46/25/96
f 41/28/97 42/29/98 34/30/99 33/31/100
f 42/59/101 37/60/102 31/61/103 34/62/104
f 69/149/105 70/150/106 71/151/107 72/152/108
f 39/67/109 40/68/110 36/69/111 35/70/112
f 73/156/113 74/153/114 65/154/115 68/155/116
f 25/37/117 26/38/118 38/39/119 37/40/120
f 75/157/121 76/158/122 77/159/123 78/160/124
f 29/71/125 30/72/126 40/68/110 39/67/109
f 80/161/127 79/162/128 74/153/114 73/156/113
f 27/32/129 28/33/130 42/29/98 41/28/97
f 28/63/131 25/64/132 37/60/102 42/59/101
f 37/111/133 38/112/134 44/113/135 43/114/136
f 32/97/137 31/96/138 46/100/139 45/101/140
f 31/61/141 37/60/142 43/65/143 46/66/144
f 70/163/145 75/164/146 78/165/147 71/166/148
f 39/67/109 35/70/112 48/73/149 47/74/150
f 67/147/151 66/146/152 69/167/153 72/168/154
f 50/119/92 49/117/91 29/109/155 30/110/156
f 51/121/157 50/120/158 27/32/159 41/28/160
f 52/122/161 51/121/157 41/28/160 33/31/162
f 32/97/80 53/124/163 52/123/164 33/98/81
f 54/125/165 53/124/166 32/97/167 45/101/168
f 44/23/169 55/127/170 54/126/171 45/24/172
f 38/112/173 56/129/174 55/128/175 44/113/176
f 26/38/177 49/118/178 56/130/179 38/39/180
f 2/87/12 3/86/11 58/133/181 57/132/182
f 59/135/183 58/134/184 3/11/185 17/7/186
f 60/136/187 59/135/183 17/7/186 9/10/188
f 8/76/2 61/138/189 60/137/190 9/77/3
f 62/139/191 61/138/192 8/76/193 21/80/194
f 20/2/195 63/141/196 62/140/197 21/3/198
f 14/91/199 64/143/200 63/142/201 20/92/202
f 2/17/203 57/131/204 64/144/205 14/18/206
f 52/123/207 53/124/208 66/146/209 65/145/210
f 35/102/112 36/103/111 68/148/211 67/147/212
f 54/126/213 55/127/214 70/150/215 69/149/216
f 47/26/150 48/27/149 72/152/217 71/151/218
f 51/121/219 52/122/207 65/154/210 74/153/220
f 36/35/111 40/34/110 73/156/221 68/155/211
f 56/130/222 49/118/223 76/158/224 75/157/225
f 49/118/226 29/41/227 77/159/228 76/158/229
f 29/41/125 39/42/109 78/160/230 77/159/231
f 30/36/232 50/120/233 79/162/234 80/161/235
f 50/120/236 51/121/219 74/153/220 79/162/237
f 40/34/110 30/36/126 80/161/238 73/156/221
f 55/128/214 56/129/222 75/164/225 70/163/215
f 39/115/109 47/116/150 71/166/218 78/165/230
f 53/124/208 54/125/213 69/167/216 66/146/209
f 48/104/149 35/102/112 67/147/212 72/168/217
f 60/137/239 61/138/240 82/170/241 81/169/242
f 11/81/36 12/82/35 84/172/243 83/171/244
f 57/132/245 58/133/246 86/174/247 85/173/248
f 6/88/50 5/89/49 88/176/249 87/175/250
f 62/140/251 63/141/252 90/178/253 89/177/254
f 23/5/74 24/6/73 92/180/255 91/179/256
f 59/135/257 60/136/239 81/182/242 94/181/258
f 12/14/35 16/13/34 93/184/259 84/183/243
f 64/144/260 57/131/245 85/186/248 95/185/261
f 5/20/49 15/21/33 96/188/262 88/187/249
f 58/134/246 59/135/257 94/181/258 86/189/247
f 16/13/34 6/15/50 87/190/250 93/184/259
f 63/142/252 64/143/260 95/192/261 90/191/253
f 15/94/33 23/95/74 91/194/256 96/193/262
f 61/138/240 62/139/251 89/195/254 82/170/241
f 24/83/73 11/81/36 83/171/244 92/196/255
